# xmcd CD database file
#
# Track frame offsets:
#	183
#	23018
#	42490
#	67970
#	85775
#	109838
#	143465
#	162953
#	179745
#	200310
#	219178
#	238233
#	249508
#
# Disc length: 3600 seconds
#
# Revision: 1
# Processed by: cddbd v1.5.2PL0 Copyright (c) Steve Scherf et al.
# Submitted via: CDex 1.82
#
DISCID=ad0e0e0d
DTITLE=Chris Rea - On The Beach
DYEAR=1986
DGENRE=SoftRock
TTITLE0=On The Beach
TTITLE1=Little Blonde Plaits
TTITLE2=Giverny
TTITLE3=Lucky Day
TTITLE4=Just Passing Through
TTITLE5=It's All Gone
TTITLE6=Hello Friend
TTITLE7=Two Roads
TTITLE8=Light Of Hope
TTITLE9=Auf immer und ewig
TTITLE10=Freeway
TTITLE11=Bless Them All
TTITLE12=Crack That Mould
EXTD=YEAR: 1986
EXTT0=
EXTT1=
EXTT2=
EXTT3=
EXTT4=
EXTT5=
EXTT6=
EXTT7=
EXTT8=
EXTT9=
EXTT10=
EXTT11=
EXTT12=
PLAYORDER=
